<svg width="30" height="30" viewBox="0 0 30 30" fill="none" xmlns="http://www.w3.org/2000/svg">
<path d="M28.8559 7.64646C28.8251 7.64646 28.7789 7.64646 28.7328 7.64646C20.5931 6.90693 12.4689 6.62787 4.42153 7.3674L1.28261 7.64646C0.636365 7.70228 0.0670523 7.28368 0.00550492 6.69763C-0.0560424 6.11159 0.405563 5.60927 1.03642 5.55345L4.17534 5.27438C12.3612 4.5209 20.6547 4.81392 28.9636 5.55345C29.5944 5.60927 30.056 6.12554 29.9945 6.69763C29.9483 7.24182 29.4406 7.64646 28.8559 7.64646Z" fill="#6A6A6A"/>
<path d="M9.6239 6.23718C9.56236 6.23718 9.50081 6.23718 9.42388 6.22323C8.8084 6.12555 8.37757 5.58137 8.48528 5.02323L8.82379 3.19533C9.06998 1.85581 9.40849 0 12.9936 0H17.0249C20.6254 0 20.9639 1.92557 21.1947 3.20929L21.5333 5.02323C21.641 5.59532 21.2101 6.13951 20.5947 6.22323C19.9638 6.3209 19.3637 5.9302 19.2714 5.37207L18.9329 3.55812C18.7175 2.34418 18.6713 2.10697 17.0403 2.10697H13.0089C11.378 2.10697 11.3472 2.30231 11.1164 3.54417L10.7625 5.35811C10.6702 5.87439 10.1778 6.23718 9.6239 6.23718Z" fill="#6A6A6A"/>
<path d="M19.9482 29.9998H10.0698C4.69983 29.9998 4.48441 27.3068 4.31516 25.1301L3.31501 11.079C3.26885 10.5069 3.76123 10.0046 4.39209 9.9627C5.03834 9.9348 5.57688 10.3674 5.62304 10.9394L6.62318 24.9906C6.79244 27.1115 6.85398 27.9068 10.0698 27.9068H19.9482C23.1794 27.9068 23.241 27.1115 23.3948 24.9906L24.395 10.9394C24.4412 10.3674 24.9951 9.9348 25.6259 9.9627C26.2568 10.0046 26.7492 10.4929 26.703 11.079L25.7029 25.1301C25.5336 27.3068 25.3182 29.9998 19.9482 29.9998Z" fill="#6A6A6A"/>
<path d="M17.5625 22.3254H12.4387C11.8078 22.3254 11.2847 21.851 11.2847 21.2789C11.2847 20.7068 11.8078 20.2324 12.4387 20.2324H17.5625C18.1934 20.2324 18.7165 20.7068 18.7165 21.2789C18.7165 21.851 18.1934 22.3254 17.5625 22.3254Z" fill="#6A6A6A"/>
<path d="M18.855 16.7444H11.1616C10.5307 16.7444 10.0076 16.27 10.0076 15.6979C10.0076 15.1258 10.5307 14.6514 11.1616 14.6514H18.855C19.4859 14.6514 20.009 15.1258 20.009 15.6979C20.009 16.27 19.4859 16.7444 18.855 16.7444Z" fill="#6A6A6A"/>
</svg>
