<svg width="22" height="23" viewBox="0 0 22 23" fill="none" xmlns="http://www.w3.org/2000/svg">
<g id="Group">
<path id="Vector" d="M3.54859 19.5162C2.89063 19.5162 2.27583 19.2896 1.83359 18.8689C1.27272 18.3404 1.00306 17.5422 1.10014 16.6793L1.49923 13.1846C1.57473 12.5267 1.97381 11.653 2.43762 11.1784L11.293 1.80536C13.5042 -0.535229 15.8124 -0.599945 18.153 1.61121C20.4936 3.82236 20.5583 6.13059 18.3471 8.47117L9.49174 17.8442C9.03872 18.3296 8.1974 18.7826 7.53944 18.8906L4.06632 19.4837C3.88295 19.4945 3.72116 19.5162 3.54859 19.5162ZM14.7554 1.60042C13.9248 1.60042 13.2022 2.11815 12.4687 2.89475L3.6133 12.2787C3.39758 12.5052 3.1495 13.0445 3.10636 13.3573L2.70727 16.8519C2.66413 17.2079 2.75041 17.4991 2.94456 17.6824C3.13871 17.8658 3.42994 17.9305 3.78588 17.8766L7.25901 17.2835C7.5718 17.2295 8.08954 16.949 8.30526 16.7225L17.1607 7.34941C18.4981 5.92565 18.9835 4.60974 17.0312 2.77611C16.1683 1.94558 15.4241 1.60042 14.7554 1.60042Z" fill="#4C67DB"/>
<path id="Vector_2" d="M16.2766 10.2721C16.255 10.2721 16.2227 10.2721 16.2011 10.2721C12.8358 9.93778 10.1285 7.38153 9.61078 4.03783C9.54606 3.5956 9.84807 3.18573 10.2903 3.11023C10.7325 3.04551 11.1424 3.34752 11.2179 3.78975C11.6278 6.39999 13.7419 8.40621 16.3737 8.66507C16.8159 8.70822 17.1395 9.1073 17.0963 9.54948C17.0424 9.95935 16.6865 10.2721 16.2766 10.2721Z" fill="#4C67DB"/>
<path id="Vector_3" d="M20.2239 23H0.808958C0.366728 23 0 22.6333 0 22.191C0 21.7488 0.366728 21.3821 0.808958 21.3821H20.2239C20.6662 21.3821 21.0329 21.7488 21.0329 22.191C21.0329 22.6333 20.6662 23 20.2239 23Z" fill="#4C67DB"/>
</g>
</svg>
