<svg width="33" height="30" viewBox="0 0 33 30" fill="none" xmlns="http://www.w3.org/2000/svg">
<path d="M17.0482 18.9425H13.2597C12.6384 18.9425 12.1232 18.4273 12.1232 17.8059C12.1232 17.1846 12.6384 16.6694 13.2597 16.6694H17.0482C21.0186 16.6694 24.2464 13.4416 24.2464 9.47125C24.2464 5.5009 21.0186 2.2731 17.0482 2.2731H9.47125C5.5009 2.2731 2.2731 5.5009 2.2731 9.47125C2.2731 11.1382 2.86411 12.7597 3.92489 14.0478C4.31889 14.5327 4.25827 15.2449 3.77335 15.6541C3.28842 16.0481 2.57618 15.9875 2.16702 15.5025C0.772854 13.8053 0 11.6686 0 9.47125C0 4.24312 4.24312 0 9.47125 0H17.0482C22.2764 0 26.5195 4.24312 26.5195 9.47125C26.5195 14.6994 22.2764 18.9425 17.0482 18.9425Z" fill="white"/>
<path d="M23.1107 29.5499H15.5337C10.3056 29.5499 6.0625 25.3068 6.0625 20.0787C6.0625 14.8505 10.3056 10.6074 15.5337 10.6074H19.3222C19.9436 10.6074 20.4588 11.1227 20.4588 11.744C20.4588 12.3653 19.9436 12.8805 19.3222 12.8805H15.5337C11.5634 12.8805 8.3356 16.1083 8.3356 20.0787C8.3356 24.049 11.5634 27.2768 15.5337 27.2768H23.1107C27.0811 27.2768 30.3089 24.049 30.3089 20.0787C30.3089 18.4117 29.7179 16.7903 28.6571 15.5022C28.2631 15.0172 28.3237 14.305 28.8086 13.8958C29.2936 13.4867 30.0058 13.5625 30.415 14.0474C31.8243 15.7446 32.5971 17.8813 32.5971 20.0787C32.582 25.3068 28.3389 29.5499 23.1107 29.5499Z" fill="white"/>
</svg>
