<svg width="39" height="39" viewBox="0 0 39 39" fill="none" xmlns="http://www.w3.org/2000/svg">
<path id="Icon ionic-ios-search" d="M38.5408 36.1641L27.6578 25.1701C30.1238 22.0588 31.3046 18.1197 30.9572 14.1635C30.6098 10.2073 28.7606 6.53478 25.7901 3.90178C22.8196 1.26877 18.9538 -0.124472 14.9882 0.00874336C11.0226 0.141959 7.25881 1.7915 4.47138 4.61793C1.68396 7.44436 0.0849098 11.2327 0.00328533 15.2033C-0.0783391 19.174 1.36367 23.0249 4.03258 25.9637C6.70149 28.9025 10.3943 30.7056 14.3511 31.002C18.3078 31.2984 22.2276 30.0655 25.3038 27.557L36.1157 38.4799C36.4214 38.8011 36.8418 38.9879 37.2848 38.9994C37.7279 39.011 38.1574 38.8463 38.4793 38.5414C38.801 38.2335 38.9879 37.8108 38.9994 37.3654C39.011 36.9201 38.8461 36.4883 38.5408 36.1641ZM15.4709 27.6887C12.6377 27.6882 9.89235 26.7044 7.70257 24.905C5.51279 23.1057 4.01407 20.602 3.46175 17.8206C2.90944 15.0392 3.33771 12.1522 4.67358 9.65142C6.00946 7.15064 8.1703 5.19084 10.7879 4.10591C13.4056 3.02098 16.3181 2.87805 19.0292 3.70147C21.7403 4.52489 24.0823 6.26372 25.6562 8.6217C27.2301 10.9797 27.9385 13.8109 27.6607 16.6331C27.3828 19.4552 26.136 22.0936 24.1326 24.0988C22.9976 25.2406 21.6477 26.1458 20.1609 26.762C18.6742 27.3782 17.0801 27.6932 15.4709 27.6887Z" fill="#6A6A6A"/>
</svg>
