<svg width="28" height="27" viewBox="0 0 28 27" fill="none" xmlns="http://www.w3.org/2000/svg">
<g id="&#240;&#159;&#166;&#134; icon &#34;setting 2&#34;">
<g id="Group">
<path id="Vector" d="M13.9037 18.0262C11.2265 18.0262 9.05371 15.8534 9.05371 13.1762C9.05371 10.499 11.2265 8.32617 13.9037 8.32617C16.5809 8.32617 18.7537 10.499 18.7537 13.1762C18.7537 15.8534 16.5809 18.0262 13.9037 18.0262ZM13.9037 10.2662C12.3 10.2662 10.9937 11.5724 10.9937 13.1762C10.9937 14.7799 12.3 16.0862 13.9037 16.0862C15.5074 16.0862 16.8137 14.7799 16.8137 13.1762C16.8137 11.5724 15.5074 10.2662 13.9037 10.2662Z" fill="white"/>
<path id="Vector_2" d="M18.0549 26.3552C17.7833 26.3552 17.5117 26.3164 17.2401 26.2518C16.4382 26.0319 15.7657 25.5275 15.3389 24.8162L15.1837 24.5575C14.4206 23.2383 13.373 23.2383 12.61 24.5575L12.4677 24.8032C12.0409 25.5275 11.3684 26.0448 10.5665 26.2518C9.75171 26.4716 8.91105 26.3552 8.19972 25.9284L5.97519 24.648C5.18626 24.1954 4.61719 23.4582 4.37146 22.5658C4.13866 21.6734 4.25506 20.7551 4.70772 19.9662C5.08279 19.3066 5.18626 18.7116 4.96639 18.3366C4.74652 17.9615 4.19039 17.7416 3.42733 17.7416C1.53906 17.7416 0 16.2026 0 14.3143V12.038C0 10.1498 1.53906 8.61072 3.42733 8.61072C4.19039 8.61072 4.74652 8.39085 4.96639 8.01579C5.18626 7.64072 5.09572 7.04579 4.70772 6.38619C4.25506 5.59726 4.13866 4.66606 4.37146 3.7866C4.60426 2.8942 5.17332 2.157 5.97519 1.70433L8.21265 0.423936C9.67411 -0.442595 11.6012 0.0618036 12.4806 1.54913L12.6358 1.8078C13.3989 3.127 14.4465 3.127 15.2096 1.8078L15.3518 1.56207C16.2313 0.0618036 18.1584 -0.442595 19.6328 0.43687L21.8573 1.71727C22.6462 2.16993 23.2153 2.90713 23.461 3.79953C23.6938 4.69193 23.5774 5.61019 23.1248 6.39912C22.7497 7.05872 22.6462 7.65366 22.8661 8.02872C23.086 8.40379 23.6421 8.62365 24.4052 8.62365C26.2934 8.62365 27.8325 10.1627 27.8325 12.051V14.3272C27.8325 16.2155 26.2934 17.7546 24.4052 17.7546C23.6421 17.7546 23.086 17.9744 22.8661 18.3495C22.6462 18.7246 22.7368 19.3195 23.1248 19.9791C23.5774 20.768 23.7068 21.6992 23.461 22.5787C23.2282 23.4711 22.6592 24.2083 21.8573 24.661L19.6198 25.9414C19.1284 26.2129 18.5981 26.3552 18.0549 26.3552ZM13.9033 21.5699C15.0544 21.5699 16.1278 22.2942 16.865 23.5746L17.0073 23.8203C17.1625 24.0919 17.4212 24.2859 17.7316 24.3635C18.042 24.4411 18.3524 24.4023 18.611 24.2471L20.8485 22.9538C21.1848 22.7598 21.4434 22.4364 21.5469 22.0484C21.6504 21.6604 21.5986 21.2595 21.4046 20.9232C20.6674 19.6558 20.5769 18.3495 21.146 17.3536C21.715 16.3578 22.892 15.7887 24.3664 15.7887C25.1941 15.7887 25.8537 15.1291 25.8537 14.3014V12.0251C25.8537 11.2103 25.1941 10.5378 24.3664 10.5378C22.892 10.5378 21.715 9.96872 21.146 8.97285C20.5769 7.97699 20.6674 6.67072 21.4046 5.40326C21.5986 5.06699 21.6504 4.66606 21.5469 4.27806C21.4434 3.89006 21.1977 3.57966 20.8614 3.37273L18.624 2.09233C18.0678 1.75607 17.3306 1.95007 16.9944 2.51913L16.8521 2.76486C16.1149 4.04526 15.0414 4.76953 13.8904 4.76953C12.7393 4.76953 11.6658 4.04526 10.9286 2.76486L10.7864 2.5062C10.463 1.963 9.73878 1.769 9.18265 2.09233L6.94519 3.38566C6.60892 3.57966 6.35025 3.903 6.24679 4.29099C6.14332 4.67899 6.19505 5.07993 6.38905 5.41619C7.12625 6.68366 7.21678 7.98992 6.64772 8.98579C6.07865 9.98165 4.90172 10.5507 3.42733 10.5507C2.59959 10.5507 1.94 11.2103 1.94 12.038V14.3143C1.94 15.1291 2.59959 15.8016 3.42733 15.8016C4.90172 15.8016 6.07865 16.3707 6.64772 17.3666C7.21678 18.3624 7.12625 19.6687 6.38905 20.9362C6.19505 21.2724 6.14332 21.6734 6.24679 22.0614C6.35025 22.4494 6.59599 22.7598 6.93225 22.9667L9.16971 24.2471C9.44131 24.4152 9.76465 24.454 10.0621 24.3764C10.3725 24.2988 10.6312 24.0919 10.7993 23.8203L10.9416 23.5746C11.6788 22.3071 12.7522 21.5699 13.9033 21.5699Z" fill="white"/>
</g>
</g>
</svg>
